<?xml version="1.0" standalone="no"?>
<!DOCTYPE svg PUBLIC "-//W3C//DTD SVG 20010904//EN"
 "http://www.w3.org/TR/2001/REC-SVG-20010904/DTD/svg10.dtd">
<svg version="1.0" xmlns="http://www.w3.org/2000/svg"
 width="16.000000pt" height="16.000000pt" viewBox="0 0 16.000000 16.000000"
 preserveAspectRatio="xMidYMid meet">
<metadata>
Created by potrace 1.11, written by Peter Selinger 2001-2013
</metadata>
<g transform="translate(0.000000,16.000000) scale(0.002286,-0.002286)"
fill="#000000" stroke="none">
<path d="M0 3500 l0 -3500 3500 0 3500 0 0 3500 0 3500 -3500 0 -3500 0 0
-3500z m6340 0 l0 -2840 -2840 0 -2840 0 0 2840 0 2840 2840 0 2840 0 0 -2840z"/>
<path d="M1695 5683 c-241 -33 -418 -270 -375 -500 17 -90 53 -164 110 -227
36 -38 309 -225 1098 -751 578 -385 1051 -702 1051 -705 0 -3 -466 -315 -1036
-695 -570 -379 -1060 -712 -1090 -738 -152 -139 -181 -391 -64 -561 122 -177
359 -240 550 -147 95 46 2692 1783 2744 1836 131 131 164 333 81 498 -56 113
-28 93 -1430 1028 -732 488 -1353 898 -1380 912 -84 42 -182 61 -259 50z"/>
<path d="M4595 2398 c-3 -7 -4 -254 -3 -548 l3 -535 548 -3 547 -2 -2 547 -3
548 -543 3 c-429 2 -544 0 -547 -10z"/>
</g>
</svg>
