<?xml version="1.0" standalone="no"?>
<!DOCTYPE svg PUBLIC "-//W3C//DTD SVG 20010904//EN"
 "http://www.w3.org/TR/2001/REC-SVG-20010904/DTD/svg10.dtd">
<svg version="1.0" xmlns="http://www.w3.org/2000/svg"
 width="16.000000pt" height="16.000000pt" viewBox="0 0 16.000000 16.000000"
 preserveAspectRatio="xMidYMid meet">
<metadata>
Created by potrace 1.11, written by Peter Selinger 2001-2013
</metadata>
<g transform="translate(0.000000,16.000000) scale(0.002286,-0.002286)"
fill="#000000" stroke="none">
<path d="M0 3500 l0 -3500 3500 0 3500 0 0 3500 0 3500 -3500 0 -3500 0 0
-3500z m6125 0 l0 -2625 -2625 0 -2625 0 -3 2615 c-1 1438 0 2621 3 2628 3 10
534 12 2627 10 l2623 -3 0 -2625z"/>
<path d="M1660 5676 c-185 -42 -317 -188 -344 -381 -13 -99 34 -249 105 -329
18 -22 393 -358 831 -748 439 -390 798 -713 798 -718 0 -5 -359 -328 -798
-718 -438 -390 -809 -723 -823 -738 -122 -133 -147 -323 -65 -490 63 -126 182
-211 329 -234 108 -17 227 13 314 80 88 66 2029 1796 2056 1832 119 155 118
379 0 535 -27 36 -1958 1758 -2049 1828 -57 44 -100 63 -179 81 -72 16 -102
16 -175 0z"/>
<path d="M4810 1750 l0 -440 440 0 440 0 0 440 0 440 -440 0 -440 0 0 -440z"/>
</g>
</svg>
